Coordinates
version=1
nRows=17
nColumns=36
inDegrees=yes

Units are S.I. units (second, meters, Newtons, ...)
If the header above contains a line with 'inDegrees', this indicates whether rotational values are in degrees (yes) or radians (no).

endheader
time	pelvis_tilt	pelvis_list	pelvis_rotation	pelvis_tx	pelvis_ty	pelvis_tz	hip_flexion_r	hip_adduction_r	hip_rotation_r	knee_angle_r	knee_angle_r_beta	ankle_angle_r	subtalar_angle_r	mtp_angle_r	hip_flexion_l	hip_adduction_l	hip_rotation_l	knee_angle_l	knee_angle_l_beta	ankle_angle_l	subtalar_angle_l	mtp_angle_l	lumbar_extension	lumbar_bending	lumbar_rotation	arm_flex_r	arm_add_r	arm_rot_r	elbow_flex_r	pro_sup_r	arm_flex_l	arm_add_l	arm_rot_l	elbow_flex_l	pro_sup_l
     17.16000000	     21.37520870	     -2.05095524	     -0.62466544	     -0.56236752	      0.59387696	     -0.62510222	     62.65058118	     -4.43063379	      2.07680090	     90.79364261	      1.58464800	      7.51866782	    -14.57286043	     -7.49999987	     64.09081407	     -4.92355290	      6.28262511	     92.84627248	      1.62047315	      8.05183870	     -7.95186866	     -7.49999987	    -38.46478942	      1.45678913	     -0.23272854	     -7.44413535	    -10.09093249	     10.48645787	    131.23167815	    102.57244983	     -4.05261146	     -8.92501806	     14.55332294	    128.23156253	     97.18829048
     17.17000000	     20.71410403	     -2.04961186	     -0.66583261	     -0.56100649	      0.59387276	     -0.62511772	     63.25913610	     -4.43642673	      2.07323173	     90.77449710	      1.58431385	      7.59390538	    -14.49473358	     -7.49999987	     64.72497360	     -4.93795865	      6.27276913	     92.86096786	      1.62072964	      8.08780414	     -7.93773357	     -7.49999987	    -38.65998740	      1.46091828	     -0.22438536	     -7.22938996	    -10.05561796	     10.51152775	    131.29749484	    102.56733086	     -3.86365083	     -8.94575514	     14.61192494	    128.30308089	     97.22230529
     17.18000000	     19.80021259	     -2.06815684	     -0.69789660	     -0.55928799	      0.59343330	     -0.62511824	     64.17499392	     -4.46871366	      2.02907835	     90.81926733	      1.58509524	      7.72319784	    -14.33019903	     -7.49999987	     65.67993233	     -4.96439593	      6.28031000	     92.93963664	      1.62210266	      8.11230973	     -7.90237418	     -7.49999987	    -38.54925965	      1.50934742	     -0.21036116	     -7.11299597	    -10.05666306	     10.59244853	    131.30973624	    102.56064963	     -3.82707906	     -9.00060034	     14.77391399	    128.34399356	     97.27257320
     17.19000000	     19.21566072	     -2.06050274	     -0.70528475	     -0.55786691	      0.59365954	     -0.62506764	     64.68038453	     -4.53847558	      1.96627864	     90.80628939	      1.58486873	      7.79314079	    -14.30114805	     -7.49999987	     66.19450195	     -4.97757442	      6.23580547	     92.91577377	      1.62168618	      8.15921228	     -7.90977729	     -7.49999987	    -38.90393154	      1.51890771	     -0.17478610	     -6.77344787	    -10.04028733	     10.57945040	    131.36351551	    102.56203733	     -3.55531567	     -9.01579055	     14.79036234	    128.37867311	     97.28758386
     17.20000000	     18.10274706	     -2.02581642	     -0.70207684	     -0.55586383	      0.59296181	     -0.62501700	     65.81550553	     -4.60066624	      1.97460000	     90.89151891	      1.58635627	      7.95071276	    -14.15932361	     -7.49999987	     67.33118573	     -4.92294917	      6.23503027	     92.97424881	      1.62270676	      8.23239381	     -7.91018082	     -7.49999987	    -38.66986361	      1.50374939	     -0.17746771	     -6.78489682	    -10.10540202	     10.73639300	    131.42978215	    102.56387720	     -3.53552254	     -9.13193432	     15.00122687	    128.38457307	     97.34588021
     17.21000000	     17.13411899	     -1.99350070	     -0.73124443	     -0.55403265	      0.59258371	     -0.62502871	     66.76153744	     -4.64334146	      1.99004615	     90.91107217	      1.58669754	      8.08924982	    -14.02498574	     -7.49999987	     68.26992809	     -4.90709353	      6.20001706	     92.98499187	      1.62289426	      8.29461750	     -7.90308226	     -7.49999987	    -38.68992739	      1.47056098	     -0.16926838	     -6.75346812	    -10.14436764	     10.82767895	    131.50041318	    102.54761951	     -3.41096973	     -9.18387539	     15.10186032	    128.37798052	     97.39513069
     17.22000000	     16.16588463	     -2.01022142	     -0.75191813	     -0.55221918	      0.59224123	     -0.62506346	     67.66911701	     -4.64443729	      1.99017838	     90.89953261	      1.58649613	      8.21076720	    -13.93970978	     -7.49999987	     69.20601653	     -4.90749186	      6.22444203	     92.98247676	      1.62285037	      8.38408304	     -7.91286904	     -7.49999987	    -38.79722036	      1.49079468	     -0.16217871	     -6.65960580	    -10.17742994	     10.87846414	    131.66308034	    102.53958894	     -3.31724162	     -9.20068476	     15.16611527	    128.45215980	     97.43096160
     17.23000000	     15.14950761	     -2.02986923	     -0.75651992	     -0.55021247	      0.59183160	     -0.62521817	     68.64937723	     -4.73568969	      1.88174864	     90.92676446	      1.58697142	      8.34106981	    -13.81212535	     -7.49999987	     70.18816733	     -4.92957493	      6.20368785	     93.00956378	      1.62332312	      8.47779662	     -7.89642421	     -7.49999987	    -38.86130754	      1.57398400	     -0.16560210	     -6.55694177	    -10.23984323	     10.93099369	    131.79756733	    102.52518310	     -3.25781609	     -9.19781872	     15.21609747	    128.47059313	     97.46440936
     17.24000000	     14.16532671	     -2.02524337	     -0.72898018	     -0.54816324	      0.59152539	     -0.62543120	     69.56895251	     -4.84590347	      1.82198508	     90.94924662	      1.58736381	      8.49583365	    -13.71185569	     -7.49999987	     71.11190936	     -4.90378586	      6.18429709	     93.00482965	      1.62324050	      8.60283763	     -7.87971938	     -7.49999987	    -39.02621650	      1.60427170	     -0.18657562	     -6.41572532	    -10.32659629	     11.00041018	    131.95376428	    102.51436485	     -3.14839543	     -9.20285110	     15.27247046	    128.49565825	     97.50330082
     17.25000000	     13.08542367	     -2.01470393	     -0.73035003	     -0.54598324	      0.59099269	     -0.62565589	     70.61128741	     -4.93677689	      1.78491570	     90.99477286	      1.58815839	      8.65207930	    -13.60409450	     -7.49999987	     72.13673066	     -4.88161095	      6.16722357	     93.01751193	      1.62346185	      8.73908636	     -7.84851422	     -7.49999987	    -39.12083422	      1.62221907	     -0.20411229	     -6.32974537	    -10.44419283	     11.10120826	    132.10873508	    102.50419564	     -3.05490372	     -9.24461603	     15.36795945	    128.54218869	     97.54799253
     17.26000000	     11.93306552	     -2.01462958	     -0.70549957	     -0.54376501	      0.59027109	     -0.62579063	     71.72876778	     -5.01068732	      1.76758891	     91.04743404	      1.58907750	      8.78133988	    -13.50517328	     -7.49999987	     73.24260764	     -4.84632562	      6.17779721	     93.02247710	      1.62354850	      8.87094009	     -7.81580213	     -7.49999987	    -39.20033663	      1.64913311	     -0.22839505	     -6.21221016	    -10.56130510	     11.18000272	    132.28001956	    102.49833282	     -2.94939315	     -9.29858538	     15.44972494	    128.61555473	     97.58097440
     17.27000000	     10.85275214	     -1.99746721	     -0.66903643	     -0.54157988	      0.58971933	     -0.62591983	     72.76579439	     -5.11544879	      1.74448222	     91.09802542	      1.58996049	      8.90250605	    -13.46661070	     -7.49999987	     74.25111445	     -4.80515546	      6.15321855	     93.00539316	      1.62325033	      8.99316988	     -7.80036352	     -7.49999987	    -39.42017279	      1.67513798	     -0.26772831	     -6.02745496	    -10.64899784	     11.22568512	    132.45924405	    102.49845538	     -2.78209046	     -9.31751587	     15.47420703	    128.69493022	     97.59848009
     17.28000000	      9.57582094	     -1.94495291	     -0.64617945	     -0.53902470	      0.58883222	     -0.62597867	     74.03718840	     -5.23884639	      1.74121368	     91.20973363	      1.59191016	      9.07128001	    -13.42345890	     -7.49999987	     75.49369404	     -4.77541455	      6.08659972	     93.04256342	      1.62389908	      9.12906731	     -7.74322487	     -7.49999987	    -39.45407365	      1.65576567	     -0.31486127	     -6.05424429	    -10.75782295	     11.34365488	    132.64295798	    102.49580878	     -2.80174708	     -9.33155442	     15.50390906	    128.75299490	     97.62286023
     17.29000000	      8.34463590	     -1.88308017	     -0.67041613	     -0.53642474	      0.58807509	     -0.62596202	     75.25051434	     -5.31317451	      1.75699571	     91.30035053	      1.59349172	      9.24026737	    -13.37216185	     -7.49999987	     76.66420695	     -4.78630940	      6.00572063	     93.09205443	      1.62476286	      9.25513749	     -7.63179440	     -7.49999987	    -39.58508057	      1.59706635	     -0.32838891	     -6.02708356	    -10.87989904	     11.41785972	    132.80324138	    102.49020453	     -2.72813653	     -9.35723208	     15.50113108	    128.81683442	     97.65833990
     17.30000000	      7.17062978	     -1.85060627	     -0.68440842	     -0.53383671	      0.58746830	     -0.62583244	     76.35588731	     -5.33054334	      1.77568681	     91.36040262	      1.59453983	      9.38341495	    -13.35277567	     -7.49999987	     77.77077756	     -4.80328551	      5.97084825	     93.13846764	      1.62557292	      9.38364745	     -7.55582623	     -7.49999987	    -39.82542559	      1.55122116	     -0.31898074	     -5.84568306	    -11.01248854	     11.44662898	    132.98042396	    102.49397198	     -2.49892649	     -9.41165225	     15.48575492	    128.93582184	     97.68635003
     17.31000000	      5.64603766	     -1.83675519	     -0.74011768	     -0.53085482	      0.58624634	     -0.62570657	     77.85578309	     -5.30116766	      1.80574790	     91.46075652	      1.59629134	      9.56667400	    -13.31140012	     -7.49999987	     79.28869970	     -4.82482933	      5.96730519	     93.24497786	      1.62743187	      9.55090585	     -7.43487755	     -7.49999987	    -39.72412269	      1.54367009	     -0.30523244	     -5.91741989	    -11.14910042	     11.59074215	    133.16748083	    102.50303011	     -2.57934799	     -9.45221651	     15.54368802	    129.03934495	     97.71441437
     17.32000000	      4.19104304	     -1.82228402	     -0.77868778	     -0.52781832	      0.58526377	     -0.62572557	     79.25998428	     -5.34037145	      1.79145425	     91.54459884	      1.59775466	      9.73764331	    -13.24424517	     -7.49999987	     80.70147459	     -4.84079847	      5.93934053	     93.33797631	      1.62905500	      9.72381969	     -7.31481864	     -7.49999987	    -39.73383578	      1.54548562	     -0.30631339	     -5.92208701	    -11.30009162	     11.68929941	    133.26159159	    102.49998758	     -2.63336745	     -9.42898476	     15.51896117	    129.08425198	     97.72682525
